# xmcd
#
# Track frame offsets:
#	150
#	11740
#	23297
#	38185
#	54115
#	68792
#	81065
#	90870
#	107267
#	118197
#	129145
#	141270
#
# Disc length: 2087 seconds
#
# Revision: 1
# Processed by: cddbd v1.5.2PL0 Copyright (c) Steve Scherf et al.
# Submitted via: audiograbber 1.83.01
#
DISCID=8208250c
DTITLE=Larry Stephenson - Wash My Blues Away
DYEAR=1993
DGENRE=Bluegrass
TTITLE0=Wash My Blues Away
TTITLE1=Here I Am In Love Again
TTITLE2=A Brand New Heartache Comin' On
TTITLE3=Round About Way
TTITLE4=Convicted By My Conscience
TTITLE5=Lost Indian
TTITLE6=Over In The Glory Land
TTITLE7=Kentucky Waltz
TTITLE8=Our Darlings Gone
TTITLE9=In My Baby's Arms Again
TTITLE10=Hymn From Way Back Home
TTITLE11=Moonlight In The Mountains
EXTD=featuring The Larry Stephenson Band
EXTT0=
EXTT1=
EXTT2=
EXTT3=
EXTT4=
EXTT5=
EXTT6=
EXTT7=
EXTT8=
EXTT9=
EXTT10=
EXTT11=
PLAYORDER=
